#!OML:ASF H:\Punching\Project 1\Capture day 1\Session 1\female.ASF
:FULLY-SPECIFIED
:DEGREES
2345
root -0.337347 15.6018 22.5286 -167.752 -6.677 -183.855
lowerback -4.28696 -1.28843 -3.29808
upperback -5.21649 -2.00884 -0.0894494
thorax -2.87494 -1.04758 1.72581
lowerneck -14.3369 6.89819 10.8323
upperneck 37.1058 5.62069 -5.32298
head 16.2299 1.97086 -3.5608
rclavicle -2.48201e-014 -1.37161e-014
rhumerus -40.8933 -20.4997 -62.3548
rradius 22.0155
rwrist 19.8106
rhand -10.8154 -5.63879
rfingers 7.12502
rthumb 15.1983 -35.0606
lclavicle -2.48201e-014 -1.37161e-014
lhumerus -39.4519 3.10458 81.4898
lradius 42.9635
lwrist -16.869
lhand -5.41489 13.5797
lfingers 7.12502
lthumb 20.3947 42.5287
rfemur -39.0808 7.24748 12.8021
rtibia 26.4519
rfoot -18.6538 -17.264
rtoes -3.95794
lfemur 6.23321 -8.47791 -29.2542
ltibia -4.77083e-014
lfoot -11.8543 5.42533
ltoes 1.67075
2346
root -0.320106 15.5951 22.409 -167.728 -6.98266 -183.902
lowerback -4.43509 -1.37997 -3.28973
upperback -5.24522 -2.12976 -0.0348652
thorax -2.81396 -1.11018 1.77075
lowerneck -14.3374 6.86443 10.6898
upperneck 37.2742 5.56384 -5.29656
head 16.3018 1.91682 -3.54659
rclavicle 3.79058e-014 1.55052e-014
rhumerus -41.2963 -20.5212 -61.967
rradius 22.0021
rwrist 19.8414
rhand -10.7496 -5.68515
rfingers 7.12502
rthumb 15.2617 -35.1021
lclavicle 3.79058e-014 1.55052e-014
lhumerus -39.6666 3.33631 81.4408
lradius 42.3647
lwrist -17.1582
lhand -5.30894 13.5218
lfingers 7.12502
lthumb 20.4966 42.4599
rfemur -38.8198 6.89946 13.0962
rtibia 26.9128
rfoot -17.9864 -17.2942
rtoes -4.25144
lfemur 6.69271 -8.56966 -29.1609
ltibia 1.59028e-014
lfoot -11.8485 5.23319
ltoes 0.93275
2347
root -0.301916 15.5917 22.2871 -167.715 -7.29247 -183.951
lowerback -4.57843 -1.47029 -3.28181
upperback -5.27698 -2.24971 0.0173188
thorax -2.75884 -1.17235 1.8132
lowerneck -14.3312 6.83217 10.5432
upperneck 37.4487 5.51061 -5.27482
head 16.3762 1.86211 -3.53375
rclavicle -1.30359e-014 -9.14409e-015
rhumerus -41.7038 -20.5023 -61.6096
rradius 22.0005
rwrist 19.8369
rhand -10.6968 -5.6859
rfingers 7.12502
rthumb 15.3126 -35.099
lclavicle -1.30359e-014 -9.14409e-015
lhumerus -39.8977 3.58333 81.3677
lradius 41.7432
lwrist -17.4608
lhand -5.18728 13.4663
lfingers 7.12502
lthumb 20.6135 42.3918
rfemur -38.5743 6.60276 13.3546
rtibia 27.378
rfoot -17.204 -17.3447
rtoes -4.7787
lfemur 7.16547 -8.66496 -29.0629
ltibia 0
lfoot -11.8119 5.03768
ltoes 0.161025
2348
root -0.282963 15.5915 22.1633 -167.718 -7.59968 -183.996
lowerback -4.70736 -1.55778 -3.26862
upperback -5.3099 -2.36646 0.0704259
thorax -2.71315 -1.23281 1.85382
lowerneck -14.3186 6.8034 10.3908
upperneck 37.6245 5.46578 -5.25765
head 16.451 1.80878 -3.52071
rclavicle 1.43684e-014 8.74653e-015
rhumerus -42.1065 -20.442 -61.286
rradius 22.011
rwrist 19.7813
rhand -10.6489 -5.68955
rfingers 7.12502
rthumb 15.3587 -35.0991
lclavicle 1.43684e-014 8.74653e-015
lhumerus -40.1409 3.84902 81.2705
lradius 41.0825
lwrist -17.761
lhand -5.05154 13.3991
lfingers 7.12502
lthumb 20.7439 42.3104
rfemur -38.3441 6.37125 13.5707
rtibia 27.8196
rfoot -16.327 -17.3811
rtoes -5.33386
lfemur 7.65406 -8.75529 -28.956
ltibia 3.49861e-014
lfoot -11.7362 4.84694
ltoes -0.676448
2349
root -0.263514 15.5941 22.0386 -167.738 -7.89609 -184.019
lowerback -4.81473 -1.63679 -3.23079
upperback -5.34604 -2.47319 0.128161
thorax -2.68391 -1.28858 1.88618
lowerneck -14.3006 6.78051 10.2379
upperneck 37.8034 5.43242 -5.24826
head 16.5283 1.75843 -3.50937
rclavicle 3.55452e-014 5.56597e-015
rhumerus -42.5106 -20.3485 -60.9815
rradius 22.029
rwrist 19.68
rhand -10.6087 -5.64768
rfingers 7.12502
rthumb 15.3974 -35.0543
lclavicle 3.55452e-014 5.56597e-015
lhumerus -40.4161 4.14814 81.1478
lradius 40.415
lwrist -18.0823
lhand -4.93983 13.2834
lfingers 7.12502
lthumb 20.8512 42.1829
rfemur -38.1198 6.21365 13.7566
rtibia 28.2173
rfoot -15.3931 -17.3717
rtoes -5.75808
lfemur 8.15432 -8.82977 -28.8253
ltibia 1.27222e-014
lfoot -11.6128 4.65789
ltoes -1.51741
2350
root -0.24388 15.5984 21.9132 -167.779 -8.16768 -184.007
lowerback -4.9002 -1.70506 -3.1553
upperback -5.38153 -2.56664 0.194656
thorax -2.66781 -1.33825 1.90746
lowerneck -14.2803 6.76422 10.089
upperneck 37.9802 5.41418 -5.25449
head 16.607 1.71248 -3.50305
rclavicle 2.57364e-014 -4.37326e-015
rhumerus -42.8963 -20.2473 -60.6913
rradius 22.0404
rwrist 19.5806
rhand -10.5708 -5.6121
rfingers 7.12502
rthumb 15.4339 -35.0159
lclavicle 2.57364e-014 -4.37326e-015
lhumerus -40.6971 4.48086 80.9995
lradius 39.7116
lwrist -18.407
lhand -4.85548 13.1641
lfingers 7.12502
lthumb 20.9323 42.0547
rfemur -37.8757 6.11847 13.9421
rtibia 28.564
rfoot -14.4755 -17.264
rtoes -5.90918
lfemur 8.66616 -8.87207 -28.6604
ltibia -1.27222e-014
lfoot -11.4339 4.47585
ltoes -2.3771
2351
root -0.224543 15.6033 21.7876 -167.836 -8.40726 -183.952
lowerback -4.97046 -1.76088 -3.03215
upperback -5.41678 -2.64482 0.27274
thorax -2.662 -1.38128 1.91494
lowerneck -14.2624 6.75478 9.94686
upperneck 38.157 5.41151 -5.2801
head 16.6898 1.67087 -3.504
rclavicle 7.23079e-015 -2.38542e-015
rhumerus -43.2574 -20.1505 -60.4043
rradius 22.0352
rwrist 19.5158
rhand -10.517 -5.62463
rfingers 7.12502
rthumb 15.4857 -35.0244
lclavicle 7.23079e-015 -2.38542e-015
lhumerus -40.9878 4.86027 80.82
lradius 38.983
lwrist -18.7546
lhand -4.79542 13.0284
lfingers 7.12502
lthumb 20.99 41.9126
rfemur -37.5914 6.04744 14.1633
rtibia 28.8643
rfoot -13.6493 -17.0287
rtoes -5.74848
lfemur 9.18431 -8.87468 -28.4554
ltibia 3.18055e-015
lfoot -11.1954 4.30202
ltoes -3.24248
2352
root -0.205691 15.6081 21.662 -167.901 -8.60383 -183.842
lowerback -5.03798 -1.80034 -2.84965
upperback -5.45521 -2.70335 0.362345
thorax -2.66393 -1.41628 1.90187
lowerneck -14.2402 6.75406 9.81774
upperneck 38.3317 5.42403 -5.32071
head 16.7741 1.63498 -3.5114
rclavicle -1.44492e-014 -6.75868e-015
rhumerus -43.5936 -20.0858 -60.1028
rradius 22.0063
rwrist 19.5373
rhand -10.4724 -5.63428
rfingers 7.12502
rthumb 15.5287 -35.0307
lclavicle -1.44492e-014 -6.75868e-015
lhumerus -41.296 5.29016 80.5994
lradius 38.2412
lwrist -19.14
lhand -4.75393 12.9027
lfingers 7.12502
lthumb 21.0298 41.7825
rfemur -37.2651 5.97413 14.4565
rtibia 29.1301
rfoot -12.9533 -16.6705
rtoes -5.43753
lfemur 9.69803 -8.8265 -28.1996
ltibia -3.49861e-014
lfoot -10.8933 4.13588
ltoes -4.1108
2353
root -0.187425 15.6129 21.5361 -167.966 -8.75582 -183.688
lowerback -5.11656 -1.82282 -2.61443
upperback -5.49726 -2.74162 0.4576
thorax -2.66651 -1.44323 1.86543
lowerneck -14.2139 6.7593 9.70592
upperneck 38.5059 5.44463 -5.37422
head 16.8602 1.60268 -3.52659
rclavicle -6.44808e-015 -1.07344e-014
rhumerus -43.9049 -20.0575 -59.7903
rradius 21.9515
rwrist 19.6338
rhand -10.4383 -5.64915
rfingers 7.12502
rthumb 15.5615 -35.0431
lclavicle -6.44808e-015 -1.07344e-014
lhumerus -41.6238 5.76946 80.3299
lradius 37.5001
lwrist -19.5773
lhand -4.71267 12.7858
lfingers 7.12502
lthumb 21.0695 41.6611
rfemur -36.9002 5.86968 14.8304
rtibia 29.3701
rfoot -12.3909 -16.2159
rtoes -5.12758
lfemur 10.2004 -8.72896 -27.9006
ltibia -5.40694e-014
lfoot -10.5217 3.97364
ltoes -5.0136
2354
root -0.169553 15.6184 21.4098 -168.023 -8.86627 -183.501
lowerback -5.21498 -1.83041 -2.34142
upperback -5.54773 -2.76309 0.55383
thorax -2.66936 -1.46389 1.80885
lowerneck -14.1643 6.77202 9.6136
upperneck 38.6731 5.47293 -5.43211
head 16.9394 1.57534 -3.54595
rclavicle 1.47846e-015 1.07344e-014
rhumerus -44.1992 -20.0661 -59.4626
rradius 21.8712
rwrist 19.8077
rhand -10.3991 -5.6499
rfingers 7.12502
rthumb 15.5993 -35.0409
lclavicle 1.47846e-015 1.07344e-014
lhumerus -41.986 6.29167 80.0041
lradius 36.7753
lwrist -20.0626
lhand -4.64526 12.6933
lfingers 7.12502
lthumb 21.1342 41.5614
rfemur -36.5138 5.74108 15.2663
rtibia 29.587
rfoot -11.9438 -15.7204
rtoes -4.88571
lfemur 10.6826 -8.58854 -27.5672
ltibia -6.36111e-015
lfoot -10.0702 3.81032
ltoes -5.9831
2355
root -0.151756 15.625 21.2829 -168.068 -8.94095 -183.297
lowerback -5.33735 -1.82446 -2.04578
upperback -5.60717 -2.7697 0.643355
thorax -2.67038 -1.47905 1.73252
lowerneck -14.0887 6.7894 9.53662
upperneck 38.8336 5.50068 -5.48172
head 17.0095 1.55071 -3.56448
rclavicle -2.57302e-014 -1.66979e-014
rhumerus -44.4804 -20.1185 -59.1232
rradius 21.764
rwrist 20.0471
rhand -10.3691 -5.64809
rfingers 7.12502
rthumb 15.6282 -35.0368
lclavicle -2.57302e-014 -1.66979e-014
lhumerus -42.3795 6.84882 79.6169
lradius 36.0745
lwrist -20.5996
lhand -4.54741 12.6346
lfingers 7.12502
lthumb 21.2282 41.4922
rfemur -36.1202 5.62335 15.729
rtibia 29.7823
rfoot -11.63 -15.2238
rtoes -4.6221
lfemur 11.1394 -8.41405 -27.2119
ltibia 3.49861e-014
lfoot -9.53083 3.64216
ltoes -7.03619
